<svg width="16" height="16" viewBox="0 0 16 16" fill="none" xmlns="http://www.w3.org/2000/svg">
<path fill-rule="evenodd" clip-rule="evenodd" d="M13.656 13.6566C12.9151 14.4019 12.0337 14.9928 11.0628 15.395C10.092 15.7973 9.05093 16.0029 8.00003 16C6.94913 16.0029 5.9081 15.7973 4.93722 15.395C3.96635 14.9928 3.08493 14.4019 2.34403 13.6566C1.59851 12.9157 1.00744 12.0342 0.605078 11.0632C0.202715 10.0922 -0.00293923 9.05103 3.17357e-05 7.99997C3.17357e-05 5.8633 0.832032 3.85463 2.34403 2.34397C3.08488 1.59855 3.96627 1.00755 4.93715 0.605194C5.90802 0.202837 6.94909 -0.00287775 8.00003 -3.19074e-05C9.05107 -0.00281865 10.0922 0.20292 11.0632 0.605272C12.0342 1.00762 12.9157 1.59859 13.6567 2.34397C14.402 3.08487 14.9929 3.96628 15.3951 4.93716C15.7974 5.90803 16.003 6.94907 16 7.99997C16 10.1366 15.168 12.146 13.656 13.6566ZM12.7134 3.28663C12.0961 2.66537 11.3616 2.17281 10.5525 1.8375C9.74342 1.5022 8.87584 1.33082 8.00003 1.3333C7.12423 1.33082 6.25664 1.5022 5.44756 1.8375C4.63848 2.17281 3.904 2.66537 3.2867 3.28663C2.66549 3.90398 2.17297 4.63847 1.83767 5.44754C1.50237 6.25661 1.33096 7.12417 1.33337 7.99997C1.33091 8.87587 1.50229 9.74355 1.83759 10.5527C2.17289 11.3619 2.66544 12.0965 3.2867 12.714C3.90413 13.335 4.63864 13.8274 5.4477 14.1626C6.25677 14.4978 7.12429 14.6691 8.00003 14.6666C8.87577 14.6691 9.7433 14.4978 10.5524 14.1626C11.3614 13.8274 12.0959 13.335 12.7134 12.714C13.3346 12.0965 13.8272 11.3619 14.1625 10.5527C14.4978 9.74355 14.6692 8.87587 14.6667 7.99997C14.6691 7.12417 14.4977 6.25661 14.1624 5.44754C13.8271 4.63847 13.3346 3.90398 12.7134 3.28663ZM11.3334 8.66663H8.6667V11.3333C8.6667 11.5101 8.59646 11.6797 8.47144 11.8047C8.34641 11.9297 8.17684 12 8.00003 12C7.82322 12 7.65365 11.9297 7.52863 11.8047C7.4036 11.6797 7.33337 11.5101 7.33337 11.3333V8.66663H4.6667C4.48989 8.66663 4.32032 8.5964 4.19529 8.47137C4.07027 8.34635 4.00003 8.17678 4.00003 7.99997C4.00003 7.82316 4.07027 7.65359 4.19529 7.52856C4.32032 7.40354 4.48989 7.3333 4.6667 7.3333H7.33337V4.66663C7.33337 4.48982 7.4036 4.32025 7.52863 4.19523C7.65365 4.07021 7.82322 3.99997 8.00003 3.99997C8.17684 3.99997 8.34641 4.07021 8.47144 4.19523C8.59646 4.32025 8.6667 4.48982 8.6667 4.66663V7.3333H11.3334C11.5102 7.3333 11.6797 7.40354 11.8048 7.52856C11.9298 7.65359 12 7.82316 12 7.99997C12 8.17678 11.9298 8.34635 11.8048 8.47137C11.6797 8.5964 11.5102 8.66663 11.3334 8.66663Z" fill="white"/>
</svg>
