<svg width="23" height="21" viewBox="0 0 23 21" fill="none" xmlns="http://www.w3.org/2000/svg">
<path d="M20.7252 14.8125H6.64125L3.0475 1.875H0.71875V0.4375H4.14L7.73375 13.375H19.5248L20.7014 6.90625H9.34375V5.46875H22.4236L20.7252 14.8125Z" fill="white"/>
<path d="M8.625 20.5625C7.43619 20.5625 6.46875 19.5951 6.46875 18.4062C6.46875 17.2174 7.43619 16.25 8.625 16.25C9.81381 16.25 10.7812 17.2174 10.7812 18.4062C10.7812 19.5951 9.81381 20.5625 8.625 20.5625ZM8.625 17.6875C8.43994 17.6958 8.2652 17.7751 8.13717 17.909C8.00914 18.0429 7.93768 18.221 7.93768 18.4062C7.93768 18.5915 8.00914 18.7696 8.13717 18.9035C8.2652 19.0374 8.43994 19.1167 8.625 19.125C8.81006 19.1167 8.9848 19.0374 9.11283 18.9035C9.24086 18.7696 9.31232 18.5915 9.31232 18.4062C9.31232 18.221 9.24086 18.0429 9.11283 17.909C8.9848 17.7751 8.81006 17.6958 8.625 17.6875Z" fill="white"/>
<path d="M17.9688 20.5625C16.7799 20.5625 15.8125 19.5951 15.8125 18.4062C15.8125 17.2174 16.7799 16.25 17.9688 16.25C19.1576 16.25 20.125 17.2174 20.125 18.4062C20.125 19.5951 19.1576 20.5625 17.9688 20.5625ZM17.9688 17.6875C17.7781 17.6875 17.5953 17.7632 17.4605 17.898C17.3257 18.0328 17.25 18.2156 17.25 18.4062C17.25 18.5969 17.3257 18.7797 17.4605 18.9145C17.5953 19.0493 17.7781 19.125 17.9688 19.125C18.1594 19.125 18.3422 19.0493 18.477 18.9145C18.6118 18.7797 18.6875 18.5969 18.6875 18.4062C18.6875 18.2156 18.6118 18.0328 18.477 17.898C18.3422 17.7632 18.1594 17.6875 17.9688 17.6875Z" fill="white"/>
<path d="M10.7812 8.34375H12.2188V11.9375H10.7812V8.34375Z" fill="white"/>
<path d="M15.0938 8.34375H16.5312V11.9375H15.0938V8.34375Z" fill="white"/>
</svg>
