<svg width="18" height="21" viewBox="0 0 18 21" fill="none" xmlns="http://www.w3.org/2000/svg">
<path d="M9.23258 11.8125C5.97626 11.8125 3.32632 9.16257 3.32632 5.90625C3.32632 2.64994 5.97626 0 9.23258 0C12.4889 0 15.1382 2.64994 15.1382 5.90625C15.1382 9.16257 12.4889 11.8125 9.23258 11.8125ZM9.23258 1.3125C6.69945 1.3125 4.63882 3.37313 4.63882 5.90625C4.63882 8.43938 6.69945 10.5 9.23258 10.5C11.765 10.5 13.8257 8.43938 13.8257 5.90625C13.8257 3.37313 11.7657 1.3125 9.23258 1.3125Z" fill="white"/>
<path d="M17.9863 21H0.770264L1.55055 13.9742L5.19667 12.5153L5.68492 13.7346L2.76855 14.9008L2.23633 19.6875H16.5203L15.9881 14.9008L13.0717 13.7346L13.5599 12.5153L17.2061 13.9742L17.9863 21Z" fill="white"/>
</svg>
