<svg width="24" height="24" viewBox="0 0 24 24" fill="none" xmlns="http://www.w3.org/2000/svg">
<path d="M7.49201 10.013C7.67782 9.82726 7.82521 9.60675 7.92577 9.36404C8.02633 9.12134 8.07809 8.8612 8.07809 8.59849C8.07809 8.33578 8.02633 8.07564 7.92577 7.83294C7.82521 7.59023 7.67782 7.36972 7.49201 7.18399L5.37001 5.06299C4.99496 4.68805 4.48634 4.47742 3.95602 4.47742C3.42569 4.47742 2.91707 4.68805 2.54202 5.06299L1.37801 6.22699C0.890209 6.7162 0.586197 7.35878 0.517328 8.0462C0.448459 8.73361 0.618954 9.42373 1.00001 9.99999C4.42499 15.1553 8.84469 19.575 14 23C14.5764 23.3809 15.2666 23.5513 15.954 23.4822C16.6414 23.4131 17.2839 23.109 17.773 22.621L18.938 21.457C19.313 21.0819 19.5236 20.5733 19.5236 20.043C19.5236 19.5127 19.313 19.004 18.938 18.629L16.816 16.508C16.441 16.133 15.9323 15.9224 15.402 15.9224C14.8717 15.9224 14.3631 16.133 13.988 16.508L13.281 17.215C10.909 15.2639 8.73206 13.0871 6.78101 10.715L7.49201 10.013Z" stroke="white" stroke-linecap="round" stroke-linejoin="round"/>
<path d="M12 0.5C15.05 0.5 17.9751 1.7116 20.1317 3.86827C22.2884 6.02494 23.5 8.95001 23.5 12" stroke="white" stroke-linecap="round" stroke-linejoin="round"/>
<path d="M12 4.5C13.9891 4.5 15.8968 5.29018 17.3033 6.6967C18.7098 8.10322 19.5 10.0109 19.5 12" stroke="white" stroke-linecap="round" stroke-linejoin="round"/>
<path d="M12 8.5C12.9283 8.5 13.8185 8.86875 14.4749 9.52513C15.1313 10.1815 15.5 11.0717 15.5 12" stroke="white" stroke-linecap="round" stroke-linejoin="round"/>
</svg>
