<svg id="Capa_1" data-name="Capa 1" xmlns="http://www.w3.org/2000/svg" viewBox="0 0 327.36 302.83"><defs><style>.cls-1{fill:none;}.cls-1,.cls-5{stroke:#7f2000;}.cls-1,.cls-4,.cls-5{stroke-miterlimit:10;}.cls-2{fill:#ff962a;}.cls-3{fill:#d46500;}.cls-4{fill:#219400;stroke:#006a02;}.cls-5{fill:#bf1000;}</style></defs><title>кацкуаца</title><path class="cls-1" d="M752.17,324.22q-.09.28-.21.57M756,298l-.48-.19" transform="translate(-468.99 -187.38)"/><path class="cls-2" d="M685.54,269.45c-5.74,15.68-36.35,94.37-92.3,159.83-7.67-3.38-16.43-3-24.32-2.68-6.53.26-13.29.53-19-1.06-15.5-5.61-24.77-18-29.77-27.3-2.13-5-4-10.19-6-15.71C507,362.55,499,340,475.37,331.36c16-1.72,38.75,3.37,50.34,6.88,27.68,8.53,37.19,24,45,49.61l2.89,9.39,3.21-9.29c3.44-9.92,4.35-26.14-1.73-38.32a27.48,27.48,0,0,0-8.17-10c9.17-1.34,15.65,7,23,18,5.34,7.91,9.94,14.73,16.48,14.22,5.15-.4,9.49-5.07,14.51-15.57,4.8-9.82,5.59-18.12,2.37-24.66-6.15-12.45-24.71-15.23-41.09-17.68-2.53-.38-4.94-.75-7.22-1.13a34.64,34.64,0,0,1,9.06-4.39c8.9-2.86,19.68-3,31.17-.34,2.52.71,5.35,1.76,8.09,2.78,8,3,17.14,6.36,24.61,3.95a15.11,15.11,0,0,0,3.26-1.51c4.8-3,7.82-8.51,9.21-16.93,4.37-24.12-16.21-32.51-36.15-40.62-18.15-7.41-35.34-14.41-37.7-31.91,6.39,7.87,21.59,21.21,50,18.7C641.28,242.73,682.56,245.18,685.54,269.45Z" transform="translate(-468.99 -187.38)"/><path class="cls-3" d="M685.89,269.49c-1.25,3.77-2.53,7.4-3.87,11s-2.77,7.23-4.19,10.83q-4.33,10.77-9.06,21.39c-3.14,7.09-6.52,14.07-10,21-1.76,3.45-3.48,6.93-5.28,10.36L648,354.35c-3.82,6.75-7.62,13.52-11.71,20.12l-3,5c-1,1.66-2.11,3.27-3.16,4.9-2.13,3.24-4.21,6.52-6.39,9.74a465.25,465.25,0,0,1-28.13,37.21L594.12,433l-2.12-.92a32.07,32.07,0,0,0-9.66-2.31,81.77,81.77,0,0,0-10.53-.14c-3.61.12-7.3.32-11.09.28a45.49,45.49,0,0,1-11.65-1.39l-.12,0-.11,0a50.75,50.75,0,0,1-9.82-4.87,55.59,55.59,0,0,1-8.56-6.76,65.78,65.78,0,0,1-12.74-17.3l-.08-.14,0-.07c-2.69-6.58-4.84-13.23-7.09-19.78a171.41,171.41,0,0,0-7.61-19.12c-.79-1.5-1.5-3.05-2.38-4.49l-1.27-2.2-1.39-2.12c-.88-1.45-2-2.73-3-4.09-.52-.67-1.09-1.28-1.64-1.92a24.84,24.84,0,0,0-1.7-1.85,47.31,47.31,0,0,0-16.69-11L469,330.44l6.23-.51c11.22-.91,22.23.74,33,2.86q8.12,1.6,16.06,3.91a93.54,93.54,0,0,1,15.48,6.05,55.63,55.63,0,0,1,13.56,9.75,57.76,57.76,0,0,1,10,13.39c5.36,9.8,8.41,20.53,11.8,30.89l-2.93,0,2.45-7.37.61-1.84.54-1.78c.33-1.2.63-2.41.86-3.64a60.35,60.35,0,0,0,.94-7.46,62.71,62.71,0,0,0-.06-7.51,55.18,55.18,0,0,0-1.1-7.38,45.49,45.49,0,0,0-2.26-7,26.32,26.32,0,0,0-8.63-11.15l-4.94-3.49,6-.81a16.32,16.32,0,0,1,5.74.18,18,18,0,0,1,5.21,2.18,34.14,34.14,0,0,1,7.76,7c4.35,5.14,7.76,10.82,11.54,15.71,1.89,2.4,3.93,4.66,6.07,5.74a6,6,0,0,0,3.14.71,6.28,6.28,0,0,0,3.09-1c2-1.28,3.83-3.68,5.41-6.21a77.67,77.67,0,0,0,4.25-8.22,39,39,0,0,0,2.76-8.5,20.58,20.58,0,0,0,0-8.31,15.53,15.53,0,0,0-3.67-7,22.7,22.7,0,0,0-6.81-4.94c-5.26-2.65-11.38-4.12-17.57-5.27s-12.63-1.95-19.09-3L565.58,315l7.41-5.16A39.53,39.53,0,0,1,586.21,304a54.62,54.62,0,0,1,14-1.53A74.85,74.85,0,0,1,614,304l1.75.38.44.1.51.14.85.26c1.12.35,2.21.71,3.27,1.09l6.23,2.27A62.62,62.62,0,0,0,639,311.61a20.93,20.93,0,0,0,5.56.16,11.67,11.67,0,0,0,4.72-1.61c2.86-1.72,4.87-4.79,6.13-8.49a37.22,37.22,0,0,0,1.46-5.84,35.73,35.73,0,0,0,.58-5.92,21.39,21.39,0,0,0-2.84-10.83,28.74,28.74,0,0,0-8-8.52c-6.64-4.82-14.7-8.17-22.77-11.55s-16.44-6.74-24.19-11.84a40.28,40.28,0,0,1-10.36-9.6A28.26,28.26,0,0,1,584,224.19l-1-9.12,5.65,7.13a46.57,46.57,0,0,0,9.53,9.06,49.22,49.22,0,0,0,11.71,6.21,58.9,58.9,0,0,0,13,3.09,77.3,77.3,0,0,0,13.53.28h.22A102.52,102.52,0,0,1,651.78,243a82.79,82.79,0,0,1,14.6,4.54,41.79,41.79,0,0,1,12.89,8.29,23.78,23.78,0,0,1,4.51,6.25A21.4,21.4,0,0,1,685.89,269.49Zm-.69-.08a21.48,21.48,0,0,0-2.4-6.84,23.25,23.25,0,0,0-4.57-5.69,40.17,40.17,0,0,0-12.67-7.36,79.75,79.75,0,0,0-14.33-3.77,114.52,114.52,0,0,0-14.74-1.51h.22a80.47,80.47,0,0,1-14.23.17,62.94,62.94,0,0,1-14.06-2.87,53.63,53.63,0,0,1-13-6.36,51.82,51.82,0,0,1-10.86-9.69l4.59-2a23.2,23.2,0,0,0,4.57,10.8,34.52,34.52,0,0,0,9.11,8,86.1,86.1,0,0,0,11.31,5.84c4,1.73,8,3.35,12.1,5,8.15,3.29,16.61,6.53,24.36,11.94a35.22,35.22,0,0,1,10.06,10.47,28.45,28.45,0,0,1,3.93,14.35,42.47,42.47,0,0,1-.63,7.2,44,44,0,0,1-1.68,7,26.9,26.9,0,0,1-3.33,6.82,19.77,19.77,0,0,1-5.78,5.59,19.11,19.11,0,0,1-7.64,2.71,27.92,27.92,0,0,1-7.6-.11,69.51,69.51,0,0,1-13.42-3.76L618.35,313c-1-.36-2-.7-3-1l-.72-.22-.28-.09-.37-.08-1.47-.31a66.81,66.81,0,0,0-12.4-1.39A49.74,49.74,0,0,0,588,311.18a32.17,32.17,0,0,0-10.86,4.61l-1.46-6.55,9.52,1.53c3.21.51,6.45,1,9.69,1.67,6.48,1.29,13.08,2.88,19.38,6.11a29.64,29.64,0,0,1,8.69,6.53A22.33,22.33,0,0,1,628,335.14a26.89,26.89,0,0,1-.08,10.95,45.63,45.63,0,0,1-3.31,9.89c-.73,1.55-1.44,3-2.23,4.5s-1.62,3-2.54,4.43a37.46,37.46,0,0,1-3.15,4.27,18.69,18.69,0,0,1-4.34,3.79,12.18,12.18,0,0,1-6,1.89,11.9,11.9,0,0,1-6.18-1.46,19.34,19.34,0,0,1-4.54-3.5,39.79,39.79,0,0,1-3.36-4c-2-2.72-3.78-5.48-5.55-8.14s-3.58-5.27-5.51-7.68a30.65,30.65,0,0,0-6.36-6.14,13.2,13.2,0,0,0-3.65-1.68,11.56,11.56,0,0,0-3.9-.23l1.08-4.3a30.87,30.87,0,0,1,9.79,13.35,48.46,48.46,0,0,1,2.28,7.82,58.39,58.39,0,0,1,.95,8,66.72,66.72,0,0,1-.15,8,60.42,60.42,0,0,1-1.2,7.91c-.28,1.31-.63,2.6-1,3.89l-.64,1.91-.65,1.83-2.64,7.3-1.59,4.43-1.33-4.48c-1.57-5.25-3-10.54-4.74-15.69a97.73,97.73,0,0,0-6.24-15,51.23,51.23,0,0,0-22.41-22.39c-9.59-5-20.33-7.48-31-9.64a158,158,0,0,0-16.15-2.27,84.47,84.47,0,0,0-16.14.05l.35-2.78a50.57,50.57,0,0,1,18.2,11.23c.68.59,1.26,1.28,1.88,1.93s1.24,1.3,1.82,2c1.09,1.41,2.3,2.75,3.29,4.25l1.54,2.2,1.41,2.27c1,1.5,1.77,3.09,2.64,4.64,6.64,12.59,10.47,26.19,16,38.64l-.1-.22a64.47,64.47,0,0,0,12,15.57A48.74,48.74,0,0,0,551,422.61l-.23-.07a39.8,39.8,0,0,0,10,1.13c3.51,0,7.12-.18,10.81-.32a85.05,85.05,0,0,1,11.36.23,38.18,38.18,0,0,1,11.53,2.9l-3.58.81,7.34-8.86c1.21-1.49,2.48-2.92,3.63-4.46l3.51-4.57,3.51-4.56,1.76-2.27,1.69-2.34,6.75-9.34c2.21-3.14,4.32-6.35,6.49-9.53,1.06-1.6,2.17-3.16,3.2-4.79l3.1-4.86c4.22-6.43,8.16-13,12.12-19.64l5.76-10c1.89-3.35,3.72-6.74,5.59-10.11,3.68-6.77,7.2-13.62,10.68-20.51s6.79-13.84,10-20.86c1.58-3.51,3.15-7,4.68-10.58S683.76,272.88,685.2,269.41Z" transform="translate(-468.99 -187.38)"/><path class="cls-4" d="M772.16,239.89a20.33,20.33,0,0,1,2.31,19C762,257.69,749.19,242.63,744.78,237a6,6,0,0,1,1.41-.77,9.33,9.33,0,0,1,7,.48,3,3,0,0,0,1.92.35,27.5,27.5,0,0,0,5.41-1.53c15.54-6,24.7-21.8,28.8-42l1.45-4C808.87,176.87,773,241,772.16,239.89Z" transform="translate(-468.99 -187.38)"/><path class="cls-5" d="M777,266q.5,19,1,38a400.46,400.46,0,0,1-53,73c-61.17,66.79-131.59,97.64-174,112A555.26,555.26,0,0,0,659.55,348.53a548,548,0,0,0,35-78.93c.49-1.11,12.05-27.46,29.06-33a20.15,20.15,0,0,1,14.27.73,56.37,56.37,0,0,0,11.93,15.15A57.62,57.62,0,0,0,777,266Z" transform="translate(-468.99 -187.38)"/><line class="cls-1" x1="286.57" y1="110.22" x2="286.54" y2="110.45"/><path class="cls-5" d="M790,426" transform="translate(-468.99 -187.38)"/></svg>