<svg width="23" height="23" viewBox="0 0 23 23" fill="none" xmlns="http://www.w3.org/2000/svg">
<path d="M20.7252 15.8125H6.64125L3.0475 2.875H0.71875V1.4375H4.14L7.73375 14.375H19.5248L20.7014 7.90625H9.34375V6.46875H22.4236L20.7252 15.8125Z" fill="white"/>
<path d="M8.625 21.5625C7.43619 21.5625 6.46875 20.5951 6.46875 19.4062C6.46875 18.2174 7.43619 17.25 8.625 17.25C9.81381 17.25 10.7812 18.2174 10.7812 19.4062C10.7812 20.5951 9.81381 21.5625 8.625 21.5625ZM8.625 18.6875C8.43994 18.6958 8.2652 18.7751 8.13717 18.909C8.00914 19.0429 7.93768 19.221 7.93768 19.4062C7.93768 19.5915 8.00914 19.7696 8.13717 19.9035C8.2652 20.0374 8.43994 20.1167 8.625 20.125C8.81006 20.1167 8.9848 20.0374 9.11283 19.9035C9.24086 19.7696 9.31232 19.5915 9.31232 19.4062C9.31232 19.221 9.24086 19.0429 9.11283 18.909C8.9848 18.7751 8.81006 18.6958 8.625 18.6875Z" fill="white"/>
<path d="M17.9688 21.5625C16.7799 21.5625 15.8125 20.5951 15.8125 19.4062C15.8125 18.2174 16.7799 17.25 17.9688 17.25C19.1576 17.25 20.125 18.2174 20.125 19.4062C20.125 20.5951 19.1576 21.5625 17.9688 21.5625ZM17.9688 18.6875C17.7781 18.6875 17.5953 18.7632 17.4605 18.898C17.3257 19.0328 17.25 19.2156 17.25 19.4062C17.25 19.5969 17.3257 19.7797 17.4605 19.9145C17.5953 20.0493 17.7781 20.125 17.9688 20.125C18.1594 20.125 18.3422 20.0493 18.477 19.9145C18.6118 19.7797 18.6875 19.5969 18.6875 19.4062C18.6875 19.2156 18.6118 19.0328 18.477 18.898C18.3422 18.7632 18.1594 18.6875 17.9688 18.6875Z" fill="white"/>
<path d="M10.7812 9.34375H12.2188V12.9375H10.7812V9.34375Z" fill="white"/>
<path d="M15.0938 9.34375H16.5312V12.9375H15.0938V9.34375Z" fill="white"/>
</svg>
