<svg width="15" height="10" viewBox="0 0 15 10" fill="none" xmlns="http://www.w3.org/2000/svg">
<path d="M0 5C0 4.53976 0.373096 4.16667 0.833333 4.16667L9.16667 4.16667C9.6269 4.16667 10 4.53976 10 5V5C10 5.46024 9.6269 5.83333 9.16667 5.83333L0.833334 5.83333C0.373096 5.83333 0 5.46024 0 5V5ZM0.833334 10C0.373096 10 0 9.6269 0 9.16667V9.16667C0 8.70643 0.373096 8.33333 0.833333 8.33333L14.1667 8.33333C14.6269 8.33333 15 8.70643 15 9.16667V9.16667C15 9.6269 14.6269 10 14.1667 10L0.833334 10ZM0 0.833334C0 0.373096 0.373096 2.38419e-07 0.833333 2.38419e-07H4.16667C4.6269 2.38419e-07 5 0.373096 5 0.833334V0.833334C5 1.29357 4.6269 1.66667 4.16667 1.66667H0.833333C0.373096 1.66667 0 1.29357 0 0.833334V0.833334Z" fill="white"/>
</svg>
